# This file uses centimeters as units for non-parametric coordinates.

mtllib weed.mtl
g default
v -0.391954 -0.293372 -0.153836
v 0.391954 -0.079985 0.424996
v -0.391954 0.442172 -0.424996
v 0.391954 0.655560 0.153836
v -0.330093 -0.057343 0.486413
v 0.330093 -0.316014 -0.215254
v -0.330093 0.678201 0.215254
v 0.330093 0.419531 -0.486413
v -0.498772 -0.186678 0.135580
v 0.498772 -0.186678 0.135580
v -0.498772 0.548866 -0.135580
v 0.498772 0.548866 -0.135580
vt 0.000000 0.000000
vt 1.000000 0.000000
vt 0.000000 1.000000
vt 1.000000 1.000000
vt 0.000000 0.000000
vt 1.000000 0.000000
vt 1.000000 1.000000
vt 0.000000 1.000000
vt 0.000000 0.000000
vt 1.000000 0.000000
vt 1.000000 1.000000
vt 0.000000 1.000000
vn -0.618431 0.271819 0.737331
vn -0.618431 0.271819 0.737331
vn -0.618431 0.271819 0.737331
vn -0.618431 0.271819 0.737331
vn 0.749670 0.228918 0.620960
vn 0.749670 0.228918 0.620960
vn 0.749670 0.228918 0.620960
vn 0.749670 0.228918 0.620960
vn 0.000000 0.345896 0.938273
vn 0.000000 0.345896 0.938273
vn 0.000000 0.345896 0.938273
vn 0.000000 0.345896 0.938273
s off
g weed
usemtl lambert10SG
f 1/1/1 2/2/2 4/4/3 3/3/4
f 5/5/5 6/6/6 8/7/7 7/8/8
f 9/9/9 10/10/10 12/11/11 11/12/12
